<?xml version="1.0" standalone="no"?>
<!DOCTYPE svg PUBLIC "-//W3C//DTD SVG 20010904//EN"
 "http://www.w3.org/TR/2001/REC-SVG-20010904/DTD/svg10.dtd">
<svg version="1.0" xmlns="http://www.w3.org/2000/svg"
 width="475.000000pt" height="475.000000pt" viewBox="0 0 475.000000 475.000000"
 preserveAspectRatio="xMidYMid meet">
<metadata>
Created by potrace 1.14, written by Peter Selinger 2001-2017
</metadata>
<g transform="translate(0.000000,475.000000) scale(0.100000,-0.100000)"
fill="#000000" stroke="none">
<path d="M2280 4595 c-52 -30 -100 -59 -106 -64 -7 -5 -15 -7 -18 -4 -3 4 -6
1 -6 -5 0 -7 -5 -12 -10 -12 -6 0 -48 -22 -93 -48 -172 -102 -227 -133 -233
-131 -4 0 -10 -3 -13 -8 -6 -9 -260 -158 -456 -267 -49 -27 -92 -53 -95 -56
-3 -4 -12 -9 -20 -13 -8 -3 -37 -20 -65 -37 -27 -16 -59 -34 -70 -40 -11 -5
-42 -23 -70 -39 -84 -50 -120 -69 -129 -69 -5 0 -12 -4 -15 -9 -5 -8 -85 -56
-184 -112 -89 -50 -108 -61 -144 -84 -21 -13 -53 -30 -70 -38 -18 -8 -33 -17
-33 -21 0 -5 -6 -8 -13 -8 -7 0 -23 -9 -35 -20 l-22 -21 0 -1147 0 -1147 33
-19 c17 -10 50 -28 72 -39 22 -12 42 -24 45 -27 3 -3 37 -24 75 -45 39 -21 93
-53 122 -71 28 -18 53 -31 56 -28 2 2 10 -2 17 -11 7 -8 16 -15 21 -15 4 0 37
-18 71 -40 35 -22 69 -40 76 -40 6 0 12 -4 12 -8 0 -5 16 -14 35 -22 19 -8 35
-16 35 -19 0 -4 15 -13 33 -20 17 -8 43 -22 57 -31 26 -18 265 -156 355 -206
28 -15 78 -45 113 -66 34 -21 64 -38 66 -38 3 0 51 -27 108 -61 57 -34 113
-65 126 -70 12 -5 22 -13 22 -19 0 -5 4 -9 9 -7 8 2 82 -38 161 -88 34 -22
130 -75 177 -99 13 -6 23 -14 23 -18 0 -5 6 -8 14 -8 7 0 19 -7 26 -15 22 -26
8 -33 370 179 58 33 106 59 106 56 1 -3 10 2 20 11 16 14 192 118 409 241 28
16 57 33 65 38 115 68 172 100 180 100 6 0 10 4 10 9 0 5 10 13 23 17 12 4 54
26 92 49 39 23 120 70 180 105 61 35 124 71 140 81 17 11 37 22 45 26 8 4 55
31 104 60 49 29 91 53 95 53 3 0 49 27 101 59 l95 57 0 1153 0 1152 -65 35
c-36 20 -86 49 -111 65 -25 16 -49 29 -53 29 -4 0 -14 7 -23 15 -8 8 -19 13
-24 10 -5 -4 -9 -1 -9 4 0 6 -4 11 -9 11 -5 0 -46 23 -90 50 -44 28 -83 50
-86 50 -2 0 -50 27 -106 60 -55 33 -105 60 -110 60 -5 0 -9 5 -9 10 0 6 -5 10
-12 10 -7 0 -65 32 -129 70 -65 39 -120 70 -123 70 -3 0 -35 18 -71 40 -36 22
-68 40 -71 40 -2 0 -10 5 -17 10 -7 6 -52 34 -102 62 -49 28 -105 59 -122 69
-18 11 -50 29 -70 40 -37 21 -95 55 -158 92 -16 10 -38 20 -47 23 -10 4 -18
10 -18 15 0 5 -5 9 -11 9 -10 0 -83 41 -159 88 -14 9 -29 17 -35 18 -5 1 -38
20 -72 43 -34 22 -68 41 -75 41 -7 -1 -56 -25 -108 -55z"/>
</g>
</svg>
